<?xml version="1.0" standalone="no"?>
<!DOCTYPE svg PUBLIC "-//W3C//DTD SVG 1.1//EN" "http://www.w3.org/Graphics/SVG/1.1/DTD/svg11.dtd" >
<!--
2013-9-30: Created.
-->
<svg>
<metadata>
Created by iconfont
</metadata>
<defs>

<font id="iconfont" horiz-adv-x="1024" >
  <font-face
    font-family="iconfont"
    font-weight="500"
    font-stretch="normal"
    units-per-em="1024"
    ascent="896"
    descent="-128"
  />
    <missing-glyph />
    
    <glyph glyph-name="hongbao" unicode="&#58921;" d="M841.818239 600.422098 841.818239 728.223832c0 21.441335-17.397229 38.864146-38.864146 38.864146L216.092082 767.087978c-21.416775 0-38.815027-17.423835-38.815027-38.864146l0-127.802758c0 0 69.541843-65.62258 216.188784-122.982986 0 0-106.759489-25.735128-216.188784 41.485857l0-491.387543c0-12.230556 9.934257-22.163789 22.140253-22.163789l620.237143 0c12.230556 0 22.163789 9.933233 22.163789 22.163789L841.818239 518.923946c-110.652146-64.00064-216.163201-41.485857-216.163201-41.485857C781.288654 535.34801 841.818239 600.422098 841.818239 600.422098M509.559926 490.368586c61.930491 0 112.176872-50.222845 112.176872-112.201431 0-61.929468-50.247404-112.151289-112.176872-112.151289-61.953004 0-112.199385 50.221822-112.199385 112.151289C397.360542 440.145741 447.607946 490.368586 509.559926 490.368586"  horiz-adv-x="1024" />

    
    <glyph glyph-name="shangsanjiao" unicode="&#58897;" d="M790.417 234.231h-499.661l250.227 298.81 249.434-298.81zM790.417 234.231z"  horiz-adv-x="1000" />

    
    <glyph glyph-name="yousanjiao" unicode="&#58898;" d="M362.231 105.583v499.661l298.81-250.227-298.81-249.434zM362.231 105.583z"  horiz-adv-x="1000" />

    
    <glyph glyph-name="xiasanjiao-copy" unicode="&#58900;" d="M233.583 533.769h499.661l-250.227-298.81-249.434 298.81zM233.583 533.769z"  horiz-adv-x="1000" />

    
    <glyph glyph-name="zuosanjiao-copy" unicode="&#58914;" d="M661.769 662.417v-499.661l-298.81 250.227 298.81 249.434zM661.769 662.417z"  horiz-adv-x="1000" />

    
    <glyph glyph-name="icon-yxj-money-copy" unicode="&#58885;" d="M512 805.875c-232.875 0-421.875-189-421.875-421.875s189-421.875 421.875-421.875c232.875 0 421.875 189 421.875 421.875s-189 421.875-421.875 421.875zM680.75 396.656h-143.438v-71.719h113.906c15.188 0 27.422-12.234 27.422-27.422s-12.234-27.422-27.422-27.422h-113.906v-127.828c0-15.187-12.234-27.422-27.422-27.422s-27.422 12.234-27.422 27.422v127.828h-109.688c-15.188 0-27.422 12.234-27.422 27.422s12.234 27.422 27.422 27.422h109.688v71.719h-139.219c-15.188 0-27.422 12.234-27.422 27.422s12.234 27.422 27.422 27.422h109.688l-118.125 126.984c-10.547 11.391-9.703 28.687 1.688 39.234s29.109 9.703 39.656-1.688l134.156-145.547 133.734 145.547c10.547 11.391 28.266 12.234 39.656 1.688s12.234-27.422 1.688-39.234l-117.703-126.984h113.063c15.188 0 27.422-12.234 27.422-27.422s-12.656-27.422-27.422-27.422z"  horiz-adv-x="1024" />

    
    <glyph glyph-name="fenxiang" unicode="&#58925;" d="M512.674359 848.114386c-256.3249 0-464.11234-207.79051-464.11234-464.116433 0-256.320806 207.78744-464.11234 464.11234-464.11234 256.323876 0 464.11541 207.79051 464.11541 464.11234C976.789769 640.323876 768.998235 848.114386 512.674359 848.114386zM512.676405-56.912965c-243.50799 0-440.908872 197.401906-440.908872 440.908872 0 243.506966 197.400882 440.908872 440.908872 440.908872 243.506966 0 440.908872-197.401906 440.908872-440.908872C953.585277 140.48894 756.183372-56.912965 512.676405-56.912965zM698.322569 221.555258c0-25.632797-20.779256-46.412053-46.411029-46.412053L373.442294 175.143205c-25.632797 0-46.411029 20.779256-46.411029 46.412053L327.031265 500.024503c0 25.632797 20.778232 46.411029 46.411029 46.411029l139.234111 0 0 25.385157L373.439224 571.82069c-38.446637 0-69.616544-31.17093-69.616544-69.620637l0-279.915178c0-38.449707 31.169907-69.616544 69.616544-69.616544l278.469246 0c38.449707 0 69.616544 31.166837 69.616544 69.616544l0 68.88795-23.202445 0L698.322569 221.555258zM596.974323 556.446537l85.927021-66.925249c-4.499477 0.233314-9.028631 0.355087-13.586436 0.355087-130.624013 0-238.522442-96.306416-257.719666-221.909066l36.124755 0c21.503756 105.919355 115.13218 185.646164 227.39808 185.646164 9.853415 0 19.559475-0.623193 29.088502-1.820462l-103.648638-91.143836 0.733711-40.166815 162.072259 142.518924L596.303035 593.117738 596.974323 556.446537z"  horiz-adv-x="1024" />

    
    <glyph glyph-name="tuangou-copy" unicode="&#58880;" d="M824.994 744.274c13.208 0 25.626-5.143 34.966-14.483 9.339-9.339 14.483-21.756 14.482-34.964v-624.11c0-27.266-22.183-49.448-49.449-49.448h-624.109c-27.266 0-49.448 22.182-49.448 49.448l0 624.111c0 27.265 22.182 49.446 49.448 49.446h624.11M824.994 806.274h-624.11c-61.552 0-111.448-49.896-111.448-111.446v-624.111c0-61.552 49.896-111.448 111.448-111.448h624.109c61.552 0 111.449 49.896 111.449 111.448v624.11c0.001 61.551-49.897 111.447-111.448 111.447v0zM512.938 345.903c-68.507 0-132.914 26.678-181.356 75.12-48.441 48.442-75.12 112.849-75.12 181.355 0 17.121 13.879 31 31 31s31-13.879 31-31c0-107.234 87.241-194.476 194.476-194.476s194.477 87.241 194.477 194.476c0 17.121 13.879 31 31 31s31-13.879 31-31c0-68.508-26.678-132.915-75.12-181.356-48.442-48.441-112.85-75.119-181.357-75.119z"  horiz-adv-x="1024" />

    
    <glyph glyph-name="liwu" unicode="&#59067;" d="M54.893568 53.210112M633.133056 623.655936c27.025408 60.476416 68.26496 122.789888 107.665408 122.789888 3.208192 0 7.41376-0.175104 11.459584-1.373184 16.11776-4.763648 35.743744-15.054848 32.526336-38.946816C780.670976 675.483648 734.388224 629.607424 633.133056 623.655936zM561.649664 402.80576l313.857024 0 0-465.514496-313.857024 0 0 465.514496ZM252.37504 704.29696c-2.543616 22.87616 15.577088 34.818048 32.531456 38.483968 3.66592 1.379328 7.330816 1.82784 11.455488 1.82784 38.941696 0 79.720448-63.22176 108.12928-123.24864C302.7712 627.320832 255.788032 673.565696 252.37504 704.29696zM148.818944 402.80576l313.398272 0 0-465.514496-313.398272 0 0 465.514496ZM952.484864 437.172224L952.484864 577.373184l-167.70048 0c53.147648 31.161344 82.0224 74.227712 87.975936 116.840448 8.708096 62.313472-29.708288 115.730432-95.76448 135.161856-11.838464 3.479552-23.820288 5.044224-36.1984 5.044224-114.538496 0-181.438464-151.666688-205.270016-215.809024l-34.354176 0c-26.121216 65.063936-90.264576 213.971968-204.813312 213.971968-12.376064 0-24.788992-2.118656-36.197376-5.492736-66.02752-19.540992-104.23808-72.824832-95.762432-135.168 5.727232-42.116096 34.827264-83.387392 84.765696-114.547712L70.934528 577.374208l0-140.201984L952.484864 437.172224zM968.984576 53.210112"  horiz-adv-x="1024" />

    
    <glyph glyph-name="xingxing" unicode="&#58893;" d="M512.256 624.128l-56.32-155.392-165.12-3.328 130.304-100.864-48.128-158.208 136.704 92.928L645.12 204.8l-45.824 157.952 131.328 100.352-163.84 4.864-54.528 156.16z"  horiz-adv-x="1024" />

    
    <glyph glyph-name="banxing" unicode="&#59149;" d="M550.4 115.2c-6.4 6.4-19.2 6.4-25.6 6.4-12.8 0-19.2 0-25.6-6.4l-179.2-96c-32-19.2-51.2 0-44.8 32l32 198.4c0 19.2-6.4 38.4-19.2 51.2l-147.2 140.8c-25.6 25.6-19.2 51.2 19.2 51.2l198.4 32c19.2 0 38.4 19.2 44.8 32l89.6 179.2c6.4 12.8 19.2 25.6 25.6 25.6s19.2-6.4 25.6-25.6l89.6-179.2c6.4-12.8 25.6-32 44.8-32l198.4-32c38.4-6.4 44.8-32 19.2-51.2l-147.2-140.8c-12.8-12.8-19.2-38.4-19.2-51.2l32-198.4c6.4-32-12.8-51.2-44.8-32l-166.4 96zM524.8 121.6c-12.8 0-19.2 0-25.6-6.4l-179.2-96c-32-19.2-51.2 0-44.8 32l32 198.4c0 19.2-6.4 38.4-19.2 51.2l-147.2 140.8c-25.6 25.6-19.2 51.2 19.2 51.2l198.4 32c19.2 0 38.4 19.2 44.8 32l89.6 179.2c6.4 12.8 19.2 25.6 25.6 25.6z"  horiz-adv-x="1024" />

    
    <glyph glyph-name="llmainpageback-copy" unicode="&#58910;" d="M582.257 385.408l-187.367-186.804c-6.469-6.458-6.469-16.909 0-23.354l5.853-5.841c6.48-6.445 16.956-6.445 23.425 0l204.954 204.315c6.458 6.457 6.458 16.909 0 23.364l-204.954 204.315c-6.468 6.445-16.969 6.445-23.425 0l-5.853-5.841c-6.468-6.445-6.469-16.896 0-23.365l187.367-186.792z"  horiz-adv-x="1024" />

    
    <glyph glyph-name="wodedizhi" unicode="&#58916;" d="M511.971859 586.454992c-79.231529 0-143.704936-63.325257-143.704936-141.154857 0-43.227524 54.047963-141.834332 140.956336-257.32467l2.7486-3.653203 2.747577 3.653203c86.936001 115.489314 140.956336 214.083843 140.928707 257.32467-0.001023 77.8296-64.445778 141.154857-143.676284 141.154857z m0-203.219402c-40.960901 0-74.274634 32.689517-74.274634 72.886008 0 40.210817 33.313733 72.928986 74.274634 72.928986 40.959877 0 74.27361-32.718169 74.273611-72.928986 0-40.196491-33.313733-72.886007-74.273611-72.886008zM511.999488 746.589109c-200.245673 0-362.589109-162.343435-362.589108-362.589109 0-200.26 162.343435-362.590132 362.589108-362.590132s362.589109 162.330132 362.589109 362.590132c0 200.245673-162.344458 362.589109-362.589109 362.589109z m20.720928-584.461336c-4.857635-6.387477-12.647041-10.18292-20.748557-10.18292-8.130168 0-15.891945 3.795443-20.736277 10.18292-46.031383 60.534701-153.066141 209.323423-153.066141 283.173385 0 94.15952 77.95649 170.757059 173.802418 170.757059 95.859231 0 173.844374-76.597539 173.844374-170.757059-0.001023-73.864288-107.077737-222.638683-153.095817-283.173385zM511.971859 496.757087c-22.775726 0-41.301661-18.228153-41.301661-40.621163s18.525935-40.606837 41.301661-40.606837c22.747073 0 41.271986 18.213827 41.271986 40.606837s-18.525935 40.621163-41.271986 40.621163z"  horiz-adv-x="1024" />

    
    <glyph glyph-name="llmainpageback-copy1" unicode="&#59088;" d="M441.743 382.592l187.367 186.804c6.469 6.458 6.469 16.909 0 23.354l-5.853 5.841c-6.48 6.445-16.956 6.445-23.425 0l-204.954-204.315c-6.458-6.457-6.458-16.909 0-23.364l204.954-204.315c6.468-6.445 16.969-6.445 23.425 0l5.853 5.841c6.468 6.445 6.469 16.896 0 23.366l-187.367 186.791z"  horiz-adv-x="1024" />

    
    <glyph glyph-name="llmainpageback-copy-copy" unicode="&#59146;" d="M582.257 385.408l-187.367-186.804c-6.469-6.458-6.469-16.909 0-23.354l5.853-5.841c6.48-6.445 16.956-6.445 23.425 0l204.954 204.315c6.458 6.457 6.458 16.909 0 23.364l-204.954 204.315c-6.468 6.445-16.969 6.445-23.425 0l-5.853-5.841c-6.468-6.445-6.469-16.896 0-23.366l187.367-186.791z"  horiz-adv-x="1024" />

    
    <glyph glyph-name="yijiuhuanxin" unicode="&#58895;" d="M531.072-110.016c-250.048 0-453.376 203.456-453.376 453.44H13.376l96.192 128.448 85.184-128.448h-56.64a393.472 393.472 0 0 1 392.96-392.96c174.336 0 321.664 100.352 372.288 267.072 0 0 22.656 39.168 44.608 22.464 22.336-17.024 17.088-41.984 17.088-41.984-58.432-192.32-232.896-308.032-433.984-308.032zM640.448 661.312H376l-48.192-80.448v-433.472l75.584-67.072h210.432l76.8 67.072V590.592l-50.176 70.72z m-93.76-513.92H478.976v19.968h67.712v-19.968z m67.136 95.488H403.392V475.072h210.432v-232.192z m0 327.744H403.392v19.968h210.432v-19.968zM523.584 838.656a453.952 453.952 0 0 0 453.44-453.44h64.256l-96.256-128.512-85.12 128.512h56.768a393.472 393.472 0 0 1-393.088 392.96c-174.336 0-320.96-98.24-371.648-264.896 0 0-11.968-27.328-41.92-15.36s-13.632 39.936-13.632 39.936c58.496 192.256 226.048 300.8 427.2 300.8z"  horiz-adv-x="1041" />

    
    <glyph glyph-name="arrow-left" unicode="&#58886;" d="M512.246 271.399l-292.16 292.155c-12.27 12.27799999-32.186 12.278-44.457-1e-8-12.27799999-12.27-12.278-32.186 0-44.45699999l314.389-314.38699999c12.27-12.28099999 32.186-12.281 44.457-1e-8l314.38800001 314.388c6.14 6.137 9.211 14.183 9.21099999 22.228s-3.071 16.092-9.211 22.228c-12.27 12.28099999-32.186 12.281-44.457 0l-292.161-292.157z"  horiz-adv-x="1024" />

    
    <glyph glyph-name="shangcheng-copy" unicode="&#58887;" d="M729.0112 599.7824L729.0112 687.4624C729.0112 802.6112 633.6512 896 516.1472 896c-117.5296 0-212.8128-93.3888-212.8128-208.5376l0-87.68L152.192 599.7824 152.192-128 880.128-128 880.128 599.7824 729.0112 599.7824zM374.4768 681.344c0 76.6976 63.4368 138.88 141.6704 138.88 78.2848 0 141.696-62.1824 141.696-138.88l0-81.5872L374.4768 599.7568 374.4768 681.344zM461.7472 53.99040000000002L321.28 400l85.6832 137.7024 174.72-43.648 140.5184-335.9744L461.7472 53.99040000000002zM436.3776 491.5968c-14.6176 0-26.4192-11.5968-26.4192-25.9072 0-14.3104 11.8016-25.9072 26.4192-25.9072 14.5408 0 26.3936 11.5968 26.3936 25.9072C462.7712 480 450.9184 491.5968 436.3776 491.5968z"  horiz-adv-x="1024" />

    
    <glyph glyph-name="mjiantou-copy" unicode="&#59179;" d="M664.13270595 384l-265.01218847 264.99563945 23.04005495 23.05660397 288.05287992-288.05287993-288.05287991-288.05287991-23.04005496 23.05660397z"  horiz-adv-x="1024" />

    
    <glyph glyph-name="huafeichongzhi" unicode="&#58881;" d="M898.624-47.55200000000002H86.144L0 73.66399999999999v592l100.288 109.888h814.656L1024 666.496v-596.48l-125.376-117.568zM62.976 466.432v-372.672l55.68-78.336h755.008l87.296 81.856V459.968m5.696 96.192l-5.632 84.224-72.128 72.128H128.128L62.976 641.216v-86.272M124.032 363.96799999999996h364.032v-64H124.032zM644.032 235.96799999999996h60.032v-64h-60.032zM124.032 235.96799999999996h364.032v-64H124.032zM764.032 235.96799999999996h64v-64h-64z"  horiz-adv-x="1024" />

    
    <glyph glyph-name="shoujiqia" unicode="&#58882;" d="M293.075-77.71500000000003l457.025-1.7053e-13c39.682-1.06581e-14 71.599 33.542 71.599 75.028l1.7053e-13 672.189c1.33227e-15 4.147-149.332 153.127-149.332 153.127l-379.294 1.42109e-13c-39.682 1.06581e-14-71.599-33.542-71.599-75.028l-2.27374e-13-750.286c-1.06581e-14-41.483 32.101-75.028 71.599-75.028ZM510.587 22.20399999999995l-114.709 3.55271e-14 4.26326e-14 141.401 114.709-3.55271e-14-4.26326e-14-141.401ZM635.571 22.20399999999995l-104.251 3.55271e-14 4.26326e-14 141.401 104.251-3.55271e-14-4.26326e-14-141.401ZM771.021 73.60699999999997c-8.88178e-15-28.314-18.757-51.404-41.663-51.404l-72.868 1.42109e-14 4.26326e-14 141.401 114.709-3.55271e-14-2.13163e-14-90ZM656.494 472.377l72.868-1.42109e-14c23.087-1.06581e-14 41.663-22.907 41.663-51.404l-2.13163e-14-90-114.709 3.55271e-14 4.26326e-14 141.401ZM531.328 472.377l104.251-3.55271e-14-4.26326e-14-141.401-104.251 3.55271e-14 4.26326e-14 141.401ZM395.875 472.377l114.709-3.55271e-14-4.26326e-14-141.401-114.709 3.55271e-14 4.26326e-14 141.401ZM270.709 420.974c8.88178e-15 28.314 18.575 51.404 41.663 51.404l62.586-1.77636e-14-4.26326e-14-167.018 396.063-1.42109e-13-4.26326e-14-115.787-500.313 1.42109e-13 8.52651e-14 231.402ZM270.709 73.60699999999997l2.13163e-14 90 104.251-3.55271e-14-4.26326e-14-141.401-62.586 1.77636e-14c-22.907 3.55271e-15-41.663 23.087-41.663 51.404Z"  horiz-adv-x="1024" />

    
    <glyph glyph-name="tubiao-" unicode="&#58928;" d="M730.763636 162.909091H290.909091V716.8h439.854545v-553.890909zM512-2.327273c-30.254545 0-55.854545 25.6-55.854545 55.854546 0 30.254545 25.6 55.854545 55.854545 55.854545s55.854545-25.6 55.854545-55.854545c-2.327273-32.581818-25.6-55.854545-55.854545-55.854546zM702.836364 826.181818H318.836364c-46.545455 0-81.454545-37.236364-81.454546-83.781818v-719.127273c0-46.545455 37.236364-83.781818 81.454546-83.781818h384c46.545455 0 81.454545 37.236364 81.454545 83.781818V742.4c2.327273 46.545455-34.909091 83.781818-81.454545 83.781818z"  horiz-adv-x="1024" />

    
    <glyph glyph-name="icon" unicode="&#58888;" d="M624.601 384.246l-292.155-292.16c-12.27799999-12.27-12.278-32.186 1e-8-44.457 12.27-12.27799999 32.186-12.278 44.45699999 0l314.38699999 314.389c12.28099999 12.27 12.281 32.186 1e-8 44.457l-314.388 314.38800001c-6.137 6.14-14.183 9.211-22.228 9.21099999s-16.092-3.071-22.228-9.211c-12.28099999-12.27-12.281-32.186 0-44.457l292.157-292.161z"  horiz-adv-x="1024" />

    
    <glyph glyph-name="xiangzuo" unicode="&#58889;" d="M399.399 383.754l292.155 292.16c12.278 12.27 12.278 32.186 0 44.457-12.27 12.278-32.186 12.278-44.457 0l-314.387-314.389c-12.281-12.27-12.281-32.186 0-44.457l314.388-314.388c6.137-6.14 14.183-9.211 22.228-9.211s16.092 3.071 22.228 9.211c12.281 12.27 12.281 32.186 0 44.457l-292.157 292.161z"  horiz-adv-x="1024" />

    
    <glyph glyph-name="eliaomo" unicode="&#58962;" d="M519.5 189.2c-79.3-4.3-149.1 43.5-179.6 108.6-33.4 71.5-27.1 142.2 20.6 205.2 45.5 60.1 108.8 84 183.7 75 37.2-4.4 70-19.7 98.6-44 15.5-13.2 15.2-19.1-2-28.9-14.9-8.6-30-17-44.8-25.7-41.1-24.1-82.4-47.7-123.1-72.6-21.7-13.3-26.1-34.5-13.9-56.6 13.2-23.8 38.6-29.4 65.7-13.8C605 382.8 685 429.7 765.5 475.7c13.3 7.6 14.8 15.3 8.9 28.2-20.8 45.4-51.5 82.6-92.6 110.5-90.8 61.6-187.7 71.4-287 24.7-99-46.7-152.8-128.6-161.7-236.6-7.4-89.5 26.7-165.4 91.3-227.7 90.1-87 240.7-100.7 344.2-30.7 27 18.2 27 18.2 10.2 46-18.1 30.1-36 35.6-67.4 20.6-29.7-14.2-60.5-23.5-91.9-21.5zM792 316.5c-1.5 21.5-13.2 39-23.2 57-3.3 5.9-8.6 3.6-13.3 0.9-18.4-10.6-36.8-21.2-55.4-31.5-7.9-4.4-9.3-9.7-4.7-17.4 10.6-17.8 21.1-35.7 31.2-53.8 4.4-7.9 9.7-9.7 17.3-4.8 11.1 7 22.6 13.5 33.3 21.1 9.6 6.7 15.2 16.2 14.8 28.5zM872-26H152c-27.5 0-50 22.5-50 50V744c0 27.5 22.5 50 50 50h720c27.5 0 50-22.5 50-50v-720c0-27.5-22.5-50-50-50z"  horiz-adv-x="1024" />

    
    <glyph glyph-name="faxian" unicode="&#59055;" d="M512 797.8C283.5 797.8 98.2 612.5 98.2 384c0-87.2 27-168.2 73.1-234.9 0 0 14.4-20 33.1-8.6 18 10.9 7 31.9 7 31.9-16.7 22.8-26 42.7-37.1 69-19.1 45.1-28.8 93.1-28.8 142.6s9.7 97.5 28.8 142.6c18.5 43.6 44.9 82.8 78.5 116.5 33.7 33.7 72.9 60.1 116.5 78.5 45.1 19.1 93.1 28.8 142.6 28.8s97.5-9.7 142.6-28.8c38.6-16.3 73.7-38.9 104.6-67.2l20.2-20c29.7-31.7 53.3-67.9 70.2-107.9 19.1-45.1 28.8-93.1 28.8-142.6s-9.7-97.5-28.8-142.6c-18.5-43.6-44.9-82.8-78.5-116.5-33.7-33.7-72.9-60.1-116.5-78.5-45.1-19.1-93.1-28.8-142.6-28.8s-97.5 9.7-142.6 28.8c-23.2 9.8-45.2 21.9-65.8 36.2-4.4 3-21.7 10.4-32.7-6.5-12.2-18.8 9.7-35.2 9.7-35.2 66-44.6 145.6-70.7 231.3-70.7 228.5 0 413.8 185.3 413.8 413.8 0.2 228.6-185.1 413.9-413.6 413.9z m0 0M326.6 175.4c2.3 0 4.7 0.3 6.9 1l283.7 87.1c7.5 2.3 13.4 8.2 15.7 15.7L720 561.9c2.6 8.4 0.3 17.5-5.9 23.7-6.2 6.2-15.3 8.5-23.7 5.9l-283.7-87.1c-7.5-2.3-13.4-8.2-15.7-15.7l-87-282.6c-2.6-8.4-0.3-17.5 5.9-23.7 4.4-4.5 10.4-7 16.7-7z m106 287.5l229 70.3-70.2-228-229-70.3 70.2 228z m0 0"  horiz-adv-x="1024" />

    
    <glyph glyph-name="kefu" unicode="&#58904;" d="M808 276c-0.9 0-1.8 0-2.6 0.1-39.1-89.5-117.9-157.7-214.2-182.2-4.8-28.3-29.4-49.9-59.1-49.9h-40c-33.1 0-60 26.9-60 60s26.9 60 60 60h40c22.4 0 42-12.3 52.3-30.6 81.8 21.8 148.9 79.7 183.1 155.6-17.8 12.7-29.4 33.5-29.4 57v52c0 30.8 19.9 56.9 47.5 66.3C757.9 589.9 645.9 684 512 684c-133.9 0-245.9-94.1-273.5-219.7 27.6-9.4 47.5-35.5 47.5-66.3v-52c0-38.7-31.3-70-70-70s-70 31.3-70 70v52c0 32.4 22 59.7 51.9 67.6C226.7 612.9 356.4 724 512 724c155.6 0 285.3-111.1 314-258.4 29.9-8 52-35.2 52-67.6v-52c0-38.7-31.3-70-70-70zM532 124h-40c-11 0-20-9-20-20s9-20 20-20h40c11 0 20 9 20 20s-9 20-20 20zM216 428c-16.6 0-30-13.4-30-30v-52c0-16.6 13.4-30 30-30s30 13.4 30 30v52c0 16.6-13.4 30-30 30z m622-30c0 16.6-13.4 30-30 30s-30-13.4-30-30v-52c0-16.6 13.4-30 30-30s30 13.4 30 30v52z m-445-99c4.4 0 8.4-1.4 11.7-3.8l0.1 0.1 0.7-0.7c0.8-0.7 1.6-1.4 2.3-2.2C434.9 267.3 471.2 252 511 252c40.2 0 76.7 15.6 103.9 41 0.8 1 1.7 1.8 2.7 2.6l0.1 0.1c3.4 2.7 7.7 4.3 12.3 4.3 11 0 20-9 20-20 0-4.7-1.6-8.9-4.3-12.3l0.2-0.2c-34.7-34.3-82.3-55.4-135-55.4-52.4 0-99.9 21-134.5 55l0.3 0.3c-2.4 3.3-3.8 7.3-3.8 11.7C373 290 382 299 393 299z"  horiz-adv-x="1024" />

    
    <glyph glyph-name="changyonglogo40" unicode="&#58890;" d="M524.03538791 39.24794460999999c-140.67279135-7.62602489-264.43103892 77.05823604-318.38381701 192.510447-59.29206711 126.86228588-48.10723308 252.11785174 36.54484966 363.90184787 80.70070835 106.571271 192.87512316 148.90803807 325.72024464 133.04247535 65.94419188-7.87700625 124.08002087-34.95100098 174.76358493-77.96778189 27.49873395-23.35429689 26.88522108-33.79047173-3.60171402-51.28635238-26.49051121-15.2091449-53.11402211-30.17803298-79.46724465-45.62743454-72.86016929-42.68428293-146.17082046-84.62848681-218.18150923-128.71784472-38.56344172-23.5966981-46.27527019-61.24201384-24.72076012-100.29884021 23.31782763-42.24023465 68.52266739-52.07362325 116.41752874-24.38397101 142.31812307 82.30313924 284.16002375 165.42358101 426.9264841 246.95232057 23.62244066 13.48658562 26.21807641 27.20913893 15.72183639 50.06790451-36.93097929 80.41754887-91.31922338 146.47328897-164.20084411 195.88692012-161.04317624 109.18835821-332.87433424 126.68209434-508.84135128 43.73755308-175.54442021-82.74718542-270.9029702-228.05350951-286.75565951-419.56216938-13.13478074-158.76287814 47.27276827-293.18254345 161.86691634-403.80386584 159.77324532-154.22802023 426.79133993-178.49615203 610.31573445-54.50837445 47.78760435 32.27384855 47.78760435 32.27384855 18.15873215 81.56949588-32.03573639 53.28563553-63.82477834 63.18981399-119.43790805 36.52983385C634.25771349 52.071678760000054 579.70858069 35.684844360000056 524.03538791 39.24794460999999zM1007.10270892 264.86026935999996c-2.64712088 38.13870044-23.32855438 69.11902005-41.1762378 101.06036854-5.82624007 10.43188582-15.17482214 6.41830166-23.51732808 1.65820498-32.71145907-18.72719775-65.32209673-37.61528213-98.28239468-55.88770688-14.01000388-7.76760467-16.48765577-17.17410531-8.38755327-30.82801321 18.77224715-31.64102657 37.40720151-63.36571645 55.40504694-95.44220896 7.82123212-13.93492288 17.20199232-17.12262228 30.6993047-8.5891982 19.70967793 12.45691142 40.05646895 24.01071266 59.08398862 37.42650834C997.85280382 226.20673289 1007.79773853 242.99471067000002 1007.10270892 264.86026935999996z"  horiz-adv-x="1024" />

    
    <glyph glyph-name="jinbi" unicode="&#58941;" d="M503.878293 392.126984m-503.873016 0a503.873016 503.873016 0 1 1 1007.746032 0 503.873016 503.873016 0 1 1-1007.746032 0ZM232.204824 540.734694a271.673469 125.387755 0 1 1 543.346939 0 271.673469 125.387755 0 1 1-543.346939 0ZM503.878293 357.297052c-116.099773 0-213.623583 32.507937-253.097506 78.947846-11.609977-13.931973-18.575964-30.185941-18.575963-46.439909 0-69.659864 120.743764-125.387755 271.673469-125.387755s271.673469 55.727891 271.67347 125.387755c0 16.253968-6.965986 32.507937-18.575964 46.439909-39.473923-46.439909-136.997732-78.947846-253.097506-78.947846zM503.878293 208.689342c-116.099773 0-213.623583 32.507937-253.097506 78.947846-11.609977-13.931973-18.575964-30.185941-18.575963-46.439909 0-69.659864 120.743764-125.387755 271.673469-125.387755s271.673469 55.727891 271.67347 125.387755c0 16.253968-6.965986 32.507937-18.575964 46.439909-39.473923-46.439909-136.997732-78.947846-253.097506-78.947846z"  horiz-adv-x="1024" />

    
    <glyph glyph-name="Fma" unicode="&#58883;" d="M507.0315905 805.23644435c-231.64242622 0-419.3973503-187.75492176-419.39735029-419.31375279 0-231.64242622 187.75492176-419.48094545 419.39735029-419.48094546s419.3973503 187.83851695 419.39735028 419.48094546c0 231.55883101-187.75492176 419.31375508-419.39735028 419.31375279z m0-762.72302448c-189.67761333 0-343.40927168 153.73165837-343.40927173 343.40927169 0 189.59401812 153.73165837 343.32567653 343.40927173 343.32567418 189.67761333 0 343.40927168-153.73165837 343.40927167-343.32567418 0-189.67761333-153.73165837-343.40927168-343.40927167-343.40927169zM725.6336797 390.2489112v-64.01092386H403.97165625v-205.82412739h-64.01092391v464.34075427h64.01092391v-0.76090196h314.34784689v-64.01092388h-314.34784689v-129.73387718z"  horiz-adv-x="1024" />

    
    <glyph glyph-name="wode-copy" unicode="&#58896;" d="M820.225293 31.634100999999987H201.399596c-12.792242 0-25.584485 6.396121-33.578667 15.99095-7.995475 11.192889-11.192889 23.985131-7.995474 36.777373C191.806061 247.50286900000003 324.525253 369.03046500000005 484.428283 381.82270700000004c6.396121 1.598061 11.192889 1.598061 19.188363 1.598061v-15.99095c-6.396121 0-11.192889 0-17.58901-1.59806-153.508202-11.192889-281.430626-127.922424-311.811878-284.628041-1.599354-7.995475 0-17.58901 6.396121-23.985131 4.796768-6.396121 12.792242-9.593535 20.786424-9.593535h618.825697c7.995475 0 15.989657 3.197414 20.787717 9.593535 4.798061 6.396121 7.995475 14.391596 6.396121 23.985131-19.188364 102.337939-81.550222 190.284283-169.496565 239.855192-9.594828 6.396121-20.787717 11.192889-30.382546 15.99095l6.396121 14.390303c11.192889-4.796768 22.385778-11.192889 31.980607-15.989657 92.743111-52.768323 156.704323-143.913374 177.49204-251.048081 3.198707-12.792242 0-25.584485-9.593535-36.777373-7.992889-9.594828-20.786424-15.990949-33.578667-15.99095zM508.414707 367.431111h-3.198707v15.99095h4.798061l-1.599354-15.99095zM514.810828 367.431111c-100.738586 0-183.888162 83.149576-183.888161 183.888162s83.149576 183.888162 183.888161 183.888161S698.69899 652.057859 698.69899 551.3192730000001s-83.149576-183.888162-183.888162-183.888162z m0 351.786667c-92.743111 0-167.898505-75.155394-167.898505-167.898505s75.154101-167.898505 167.898505-167.898505 167.898505 75.154101 167.898505 167.898505S607.555232 719.217778 514.810828 719.217778z"  horiz-adv-x="1024" />

    
    <glyph glyph-name="koubei" unicode="&#58891;" d="M797.30649843 652.52376322H293.65661503C265.79727458 652.52376322 243.47623678 629.9677671100001 243.47623678 602.27625404v-124.52789521c0-129.29419199 81.32913479-245.79993976 195.61956151-288.93156921v-47.79722987c0-9.73398641 3.1887197-12.58705141 11.51295634-13.32549175C643.20742381 111.91829690999998 847.65470404 260.00915234 847.65470404 477.7819243V602.24268856C847.65470404 629.9677671100001 825.16583887 652.52376322 797.30649843 652.52376322z m-78.64389716-272.08170308c-30.2760543-51.1537769-77.43554022-83.10810472-136.61146455-92.17078173-12.75487875-1.98036276-24.80488263-2.68523764-35.41157127-2.68523763-26.24819785 0-44.13859358 4.26281475-45.17912316 4.46420756l-0.9062677 0.16782736c-83.24236659 25.20766827-123.48736562 80.62425991-142.45185638 122.71535979-20.37424055 44.94416487-21.24694276 83.84654507-21.24694278 86.12899705h-0.16782735a15.17159262 15.17159262 0 0 0 15.23872357 14.93663433c8.12284384 0 14.70167603-6.37743937 15.20515809-14.39958681h0.20139283c0-0.3356547 0.87270223-35.51226769 19.13231813-75.11952275 23.89861493-52.02647912 65.01631618-87.37091947 122.61466339-104.95922596 3.5243744-0.70487488 33.29694665-6.91448689 69.44695825-1.07409505 49.94541996 7.98858195 88.2436217 34.10251793 113.75337919 77.60336758l0.16782736-0.16782736a15.10446169 15.10446169 0 0 0 20.37424053 5.16908244c7.25014161-4.09498739 9.73398641-13.32549175 5.84039185-20.60919882z m21.07911542 88.07579433a22.92521629 22.92521629 0 0 0 0 45.81686711 22.92521629 22.92521629 0 0 0 0-45.81686711z"  horiz-adv-x="1152" />

    
    <glyph glyph-name="gouwuche" unicode="&#58884;" d="M347.136 112.63999999999999q19.456 0 36.864-7.168t30.72-19.968 20.48-30.208 7.168-36.864-7.168-36.864-20.48-30.208-30.72-20.48-36.864-7.68q-20.48 0-37.376 7.68t-30.208 20.48-20.48 30.208-7.168 36.864 7.168 36.864 20.48 30.208 30.208 19.968 37.376 7.168zM773.12 110.59199999999998q19.456 0 37.376-7.168t30.72-19.968 20.48-30.208 7.68-36.864-7.68-36.864-20.48-30.208-30.72-20.48-37.376-7.68-36.864 7.68-30.208 20.48-20.48 30.208-7.68 36.864 7.68 36.864 20.48 30.208 30.208 19.968 36.864 7.168zM945.152 692.2239999999999q28.672 0 44.544-7.68t22.528-18.944 6.144-24.064-3.584-22.016-12.8-37.888-22.016-62.976-24.064-68.096-17.92-53.248q-13.312-40.96-33.792-56.832t-50.176-15.872l-34.816 0-66.56 0-87.04 0-95.232 0-253.952 0 15.36-92.16 516.096 0q49.152 0 49.152-41.984 0-20.48-9.728-35.328t-38.4-14.848l-49.152 0-95.232 0-117.76 0-119.808 0-98.304 0-56.32 0q-20.48 0-34.304 9.216t-23.04 24.064-14.848 32.256-8.704 32.768q-1.024 6.144-5.632 29.696t-11.264 58.88-14.848 78.848-16.384 87.552q-19.456 103.424-44.032 230.4l-76.8 0q-15.36 0-25.6 7.68t-16.896 18.432-9.216 23.04-2.56 22.528q0 20.48 13.824 33.792t37.376 13.312l22.528 0 20.48 0 25.6 0 34.816 0q20.48 0 32.768-6.144t19.456-15.36 10.24-19.456 5.12-17.408q2.048-8.192 4.096-23.04t4.096-30.208q3.072-18.432 6.144-38.912l700.416 0z"  horiz-adv-x="1024" />

    
    <glyph glyph-name="right" unicode="&#58892;" d="M352.17296919 383.73343493000004l316.57853969 316.58395766c13.30441481 13.29574603 13.30441481 34.87668147-1e-8 48.17351112-13.29574603 13.30441481-34.87668147 13.30441481-48.17351111 0l-340.66908782-340.67125503c-13.30766561-13.29574602-13.3076656-34.87668147 0-48.17351111l340.67017141-340.67017143c6.65004021-6.653291 15.36866878-9.98102011 24.08621378-9.9810201s17.43725713 3.3277291 24.08621374 9.9810201c13.30766561 13.29574602 13.3076656 34.87668147 0 48.17351111l-316.58070688 316.58504127z"  horiz-adv-x="1024" />

    
    <glyph glyph-name="sousuo" unicode="&#58942;" d="M938.465292 45.99276l-153.938924 146.556327c54.376257 65.578145 87.075735 148.256065 87.075736 238.352419 0 212.805152-181.191049 385.323441-404.711717 385.323441-223.561626 0-404.778273-172.518289-404.778274-385.323441 0-212.800032 181.216647-385.323441 404.778274-385.323441 71.112533 0 137.852849 17.586145 195.925524 48.232626 0.583645-0.583645 0.99322-1.228726 1.587105-1.761174l161.265204-153.529348c31.112373-29.648141 81.628382-29.648141 112.802192 0 31.219887 29.709577 31.219887 77.819331-0.00512 107.472591z m-471.585145 114.614564c-156.841789 0-283.943283 120.952743-283.943283 270.283943 0 149.285123 127.101494 270.319781 283.943283 270.31978s283.9996-121.039778 283.9996-270.31978c0.00512-149.3312-127.157811-270.283943-283.9996-270.283943z"  horiz-adv-x="1024" />

    
    <glyph glyph-name="icon--copy" unicode="&#58899;" d="M268.02606186-38.30899283999997a117.44211993 117.44211993 0 0 0-117.28124029 117.2812403L150.74482157 689.0277525399999A117.44211993 117.44211993 0 0 0 268.02606186 806.30899284l488.02831609 0a117.44211993 117.44211993 0 0 0 117.2812403-117.2812403l0-609.97506528a117.44211993 117.44211993 0 0 0-117.2812403-117.28124029z m0 792.97562884a65.79976308 65.79976308 0 0 1-65.71932328-65.71932326l0-609.97506528a65.79976308 65.79976308 0 0 1 65.71932328-65.71932326l488.02831609 0a65.79976308 65.79976308 0 0 1 65.71932328 65.71932326L821.77370123 689.0277525399999a65.79976308 65.79976308 0 0 1-65.71932328 65.71932326zM318.94446042 358.17882159a25.82117841 25.82117841 0 1 0 0 51.56191701l386.11107916 0a25.82117841 25.82117841 0 1 0 0-51.56191701zM318.94446042 236.23207242a25.82117841 25.82117841 0 1 0 0 51.24015779l263.44037172 0a25.82117841 25.82117841 0 1 0 0-51.64235684zM318.94446042 480.52776979a25.82117841 25.82117841 0 1 0 0 51.64235684l386.11107916 0a25.82117841 25.82117841 0 1 0 0-51.64235684z"  horiz-adv-x="1024" />

    
    <glyph glyph-name="changyonglogo401" unicode="&#58894;" d="M518.1240096 208.57857492999995c-71.57904107-3.8803776-134.55139413 39.20981867-162.00437973 97.95578134-30.1697952 64.551792-24.478576 128.28603093 18.59524693 185.16548266 41.06323093 54.22704213 98.1413408 75.7694112 165.73740053 67.69648 33.55461973-4.00808533 63.13608213-17.7842432 88.92558187-39.67262613 13.99227947-11.88345067 13.68010347-17.19372693-1.83267307-26.09621867-13.47926187-7.73892373-27.0261984-15.3555968-40.4356032-23.2167712-37.07370133-21.7191968-74.37662293-43.06181653-111.01808-65.49596266-19.6223744-12.00679253-23.54641173-31.1619936-12.57875306-51.03541867 11.86489387-21.49325013 34.86663467-26.49680853 59.2371488-12.40738347 72.41624107 41.8786016 144.59016427 84.17307413 217.2345344 125.6576352 12.0198912 6.86242773 13.34063787 13.84492373 7.9997984 25.47623147-18.79172267 40.91914987-46.466288 74.53052907-83.55090454 99.67384427-81.94417707 55.558704-169.3776416 64.46010453-258.91557013 22.255136-89.32289707-42.1045472-137.84453013-116.04128533-145.91091093-213.48732374-6.6834176-80.7838848 24.05397227-149.18112533 82.36332373-205.4689696 81.2979936-78.4763968 217.16576853-90.82483733 310.54914453-27.73569173 24.31593813 16.42201813 24.31593813 16.42201813 9.2397728 41.5052992-16.30085867 27.11352107-32.47619093 32.15309973-60.7740192 18.5876064C574.20883093 215.10372159999997 546.4524 206.76554986999997 518.1240096 208.57857492999995zM763.92488747 323.37770347000003c-1.346944 19.40625173-11.870352 35.17007893-20.9518528 51.42290986-2.96458667 5.30809387-7.7214592 3.26584747-11.9664064 0.8437504-16.64468907-9.5290272-33.2380768-19.13991893-50.00938347-28.4375424-7.12876053-3.95241813-8.38947307-8.7387616-4.2678688-15.68632853 9.55194987-16.10001707 19.03404053-32.2426048 28.1919488-48.5642016 3.9797056-7.0905568 8.75295147-8.71256533 15.62083733-4.37047253 10.02894613 6.33849493 20.3820768 12.21745707 30.06391787 19.04386453C759.21822507 303.70948587 764.27854187 312.2517728 763.92488747 323.37770347000003z"  horiz-adv-x="1024" />

    


  </font>
</defs>
</svg>
